<svg width="36" height="36" viewBox="0 0 36 36" fill="none" xmlns="http://www.w3.org/2000/svg">
<path fill-rule="evenodd" clip-rule="evenodd" d="M9.00039 16.2V12.6C9.00039 7.62941 13.0298 3.59998 18.0004 3.59998C22.9709 3.59998 27.0004 7.62941 27.0004 12.6V16.2C28.9886 16.2 30.6004 17.8117 30.6004 19.8V28.8C30.6004 30.7882 28.9886 32.4 27.0004 32.4H9.00039C7.01216 32.4 5.40039 30.7882 5.40039 28.8V19.8C5.40039 17.8117 7.01216 16.2 9.00039 16.2ZM23.4004 12.6V16.2H12.6004V12.6C12.6004 9.61763 15.018 7.19997 18.0004 7.19997C20.9827 7.19997 23.4004 9.61763 23.4004 12.6Z" fill="#111827"/>
</svg>
